PathFileType	4	(X/Y/Z)	pose2sim_0-766.trc
DataRate	CameraRate	NumFrames	NumMarkers	Units	OrigDataRate	OrigDataStartFrame	OrigNumFrames
50	50	5	22	m	50	671	767
Frame#	Time	Hip			RHip			RKnee			RAnkle			RBigToe			RSmallToe			RHeel			LHip			LKnee			LAnkle			LBigToe			LSmallToe			LHeel			Neck			Head			Nose			RShoulder			RElbow			RWrist			LShoulder			LElbow			LWrist			
		X1	Y1	Z1	X2	Y2	Z2	X3	Y3	Z3	X4	Y4	Z4	X5	Y5	Z5	X6	Y6	Z6	X7	Y7	Z7	X8	Y8	Z8	X9	Y9	Z9	X10	Y10	Z10	X11	Y11	Z11	X12	Y12	Z12	X13	Y13	Z13	X14	Y14	Z14	X15	Y15	Z15	X16	Y16	Z16	X17	Y17	Z17	X18	Y18	Z18	X19	Y19	Z19	X20	Y20	Z20	X21	Y21	Z21	X22	Y22	Z22	
671	13.42	0.12691228383465702	0.85409808934771	-0.030203986535652264	0.028500160758226506	0.8388116364848396	-0.03476686935462059	0.009707255085871367	0.4545618233489116	-0.06895111459257676	-0.0033793264362642138	0.08107667278688324	-0.08290046893219512	-0.03434632687233068	0.03840330735645652	0.049939865044892784	-0.07513217477212822	0.040601415009872126	0.0036946482233876058	0.014124593012798519	0.04216289955085027	-0.11061350080712187	0.22914197714759635	0.8399312381581975	-0.02957732924212017	0.24119092744267423	0.4571682002176969	-0.07945378060389015	0.25724186399328475	0.08603284595232023	-0.0817545727168776	0.2992036795281993	0.03746022951262018	0.05636953593588017	0.33577102449530827	0.041008541408146394	0.009130732920518412	0.24103679065507572	0.042885816417766336	-0.10636173929845114	0.13142460574793088	1.3964439947789271	0.01081473186639305	0.14588750818058577	1.618611716726084	0.012877614214983518	0.13797174779452973	1.5114022996120806	0.11955310122994389	-0.018564437024576757	1.3010257016198588	0.0018625884221701726	-0.10116682269406167	1.0581153472701406	0.0026086007053443138	-0.16696885187938498	0.9258689720666599	0.15599244060918296	0.27218682551850304	1.3004473233769234	-0.011557856287377483	0.34449618056222586	1.059671455906848	-0.0027810480149437827	0.41302011872305905	0.8932525698512639	0.1364358224640754
672	13.44	0.129411035071328	0.8587081128723665	-0.03012744408123011	0.032346911028641075	0.8440269113563745	-0.02681372277633421	0.010849869793544848	0.45865456610958394	-0.0723305098624296	-0.004223887924780242	0.08043241381134492	-0.08332582677900942	-0.04245760695738085	0.0322654996955869	0.07705892481137523	-0.08114105645213208	0.031166906172584122	0.01800191056022944	0.011027984626896766	0.035690021062879246	-0.11381973897910978	0.22798684543420178	0.8426918017090966	-0.02584801513535076	0.2387398938940886	0.46157628317895005	-0.06846805885797559	0.2562760239018696	0.08185189794357038	-0.08466702961747809	0.29748447394295774	0.032692557298545095	0.08214630621683232	0.32829470324638244	0.030433905634063126	0.027163652105310812	0.24190085841995623	0.03730102225533472	-0.10983978077947985	0.13269559725828756	1.394936929138886	0.012120040979603963	0.14767978451622182	1.61628886525229	0.008627891403801498	0.13773701646436648	1.5133662209944307	0.11908593049013301	-0.014303590410644032	1.2996767747786933	0.0030807687329777963	-0.10802830904110163	1.0537840414464916	0.006131605482144616	-0.17656856053797576	0.9162727732661281	0.16834791522595294	0.2707533465103009	1.3004629355309076	0.0007037227796573651	0.3415036000324959	1.056256469042588	-0.0011413786283299622	0.4156692159269008	0.8897003315936357	0.13757175386076867
673	13.46	0.12570586375025022	0.8527475164941014	-0.02968167231647587	0.025859207094168512	0.8400142113345854	-0.03330714858365698	0.01081509708214336	0.45199101429913163	-0.07209272013361068	-0.0032665612234527843	0.08143716379036009	-0.08466895654200514	-0.040762620657922015	0.03574705430965941	0.0573391319302856	-0.07646568487355149	0.03873088599642212	0.009482756690210202	0.01228764924092764	0.038714734247982587	-0.11101835556572395	0.22904322755485648	0.8385556010010097	-0.027381203261154733	0.23953758843189396	0.45728633178015415	-0.07751739347064872	0.25683081335420416	0.08224287115809115	-0.08139639273644615	0.29899389062741494	0.03501633103139474	0.06652173088641407	0.3327155807175451	0.038715746331909065	0.015463213560284423	0.241782201045398	0.04183906112746159	-0.1048981979867985	0.1313235214256267	1.3959729678944512	0.015042225812296112	0.14572742271154573	1.6179947831645198	0.01091368569991342	0.13893936536609897	1.5110671058252765	0.11969356829319636	-0.019644052200672016	1.3019090129745994	0.008201600278088552	-0.10102901839605577	1.0618213328521264	-0.0012339039858362893	-0.1714016415029192	0.9151780560977448	0.14356178680322404	0.2721829782381137	1.3001484483028258	-0.0017324758196696432	0.34219555023884507	1.0592400436942988	0.001010445841549404	0.4145624462848312	0.8853665589832583	0.12780140399198497
674	13.48	0.1263066576172385	0.8559712000912372	-0.02750701221894664	0.027884930876950296	0.8430498368727273	-0.03167205329529652	0.010195651499493143	0.4554637826413549	-0.07251621384815325	-0.0024178843121251937	0.0808975370499335	-0.08797480978861234	-0.03453238960480844	0.04038302937047111	0.05166767837347469	-0.07232570720548472	0.04125740982167252	0.00015102338926422705	0.00930971742463912	0.04170856399333851	-0.11111256314965247	0.22838822025090869	0.8406019045403036	-0.033323744326261666	0.2405645540692767	0.45918553586361444	-0.07283257957002201	0.2540106656605019	0.08440058129885765	-0.08353394581251104	0.2969311307488741	0.03685009814537216	0.0666300022496604	0.33217622868024654	0.040634643926662634	0.013243466630530278	0.24153477680714622	0.041218823469069035	-0.10398212431950046	0.1295795586662833	1.3947113067124242	0.01317384054590565	0.14526128772844274	1.617757459071376	0.012041960645746242	0.13531154484282013	1.509400187102783	0.12986870841153209	-0.01899875400818701	1.3024555184373974	0.007977036522864443	-0.10034891645636404	1.0609111502865491	-0.0006461789609946638	-0.1715941968532873	0.911229450323331	0.13789790495179385	0.2715386497803575	1.3021020010023363	-0.007264042788678187	0.3408511000117281	1.0592662068737102	-0.005484658113999972	0.4146805903456734	0.885419050964775	0.1287400222432539
675	13.5	0.12417398036439599	0.8558954147908133	-0.03145972419496237	0.025941666509013313	0.8416966902590709	-0.03517331615650493	0.011325945011024395	0.4573765949619211	-0.07059806243454478	-0.0019410167008358046	0.08124727609742356	-0.08535484994968694	-0.035341825653308366	0.038150853209625225	0.04827263929145343	-0.07137634003831053	0.04170273603453968	-0.0010404299773742525	0.012560437472144362	0.0408415366301774	-0.11117741620694488	0.22856293412697135	0.8417617365618473	-0.03535556460110306	0.24074115780072905	0.4597428774917254	-0.07835176299472041	0.2552325317560675	0.08723477465361361	-0.08197924246450695	0.295693357935848	0.03864458225803989	0.062024516069684336	0.3335858162709578	0.039662645426038985	0.012823588609576235	0.24270656805671492	0.04165742038324966	-0.1094587231899418	0.1326755478834022	1.3959729598821662	0.008775946544611333	0.1445497430539792	1.6185105779142246	0.016699251550778182	0.13824379474637483	1.5071913597173185	0.1317741109931099	-0.01959737253682791	1.3016243308442585	0.0059014758255384134	-0.09963248560769716	1.0619507458424504	0.004930651626890399	-0.1719483538532051	0.9048423304049508	0.13328513977359543	0.2703692396622736	1.3023607600809513	-0.007322906891672263	0.3410921635695665	1.060758089667564	-0.007459435255653275	0.4153925117729386	0.8839043216342305	0.11839556574705781
